<?xml version="1.0" encoding="UTF-8"?>
<svg version="1.1" xmlns="http://www.w3.org/2000/svg" width="500" height="500">
<path d="M0 0 C3.31248187 -0.02888146 6.62493167 -0.04675799 9.9375 -0.0625 C10.88302734 -0.07087891 11.82855469 -0.07925781 12.80273438 -0.08789062 C14.15141602 -0.09272461 14.15141602 -0.09272461 15.52734375 -0.09765625 C16.77632446 -0.10551147 16.77632446 -0.10551147 18.05053711 -0.11352539 C20 0 20 0 21 1 C21.36264859 4.00004095 21.66836407 6.98725744 21.9375 9.99609375 C22.02249756 10.8999733 22.10749512 11.80385284 22.19506836 12.73512268 C22.46761731 15.63553844 22.73441495 18.53643879 23 21.4375 C23.34958193 25.24914198 23.70451933 29.06023259 24.0625 32.87109375 C24.14169678 33.75445908 24.22089355 34.6378244 24.30249023 35.54795837 C24.37927002 36.36543045 24.4560498 37.18290253 24.53515625 38.02514648 C24.600979 38.74604965 24.66680176 39.46695282 24.73461914 40.20970154 C24.91974693 42.09885175 24.91974693 42.09885175 26 44 C26.21934204 42.05395874 26.21934204 42.05395874 26.44311523 40.06860352 C26.98479293 35.27301454 27.53216669 30.47809023 28.08129883 25.68334961 C28.3185416 23.60475167 28.55422179 21.52597479 28.78833008 19.44702148 C29.1243459 16.46550269 29.46590491 13.48466446 29.80859375 10.50390625 C29.91280136 9.56849503 30.01700897 8.6330838 30.12437439 7.66932678 C30.22440262 6.80850998 30.32443085 5.94769318 30.42749023 5.06079102 C30.51409409 4.29912125 30.60069794 3.53745148 30.68992615 2.75270081 C31 1 31 1 32 0 C33.62257544 -0.0991657 35.24939831 -0.13079777 36.875 -0.1328125 C37.85984375 -0.13410156 38.8446875 -0.13539063 39.859375 -0.13671875 C40.89578125 -0.13285156 41.9321875 -0.12898438 43 -0.125 C44.55460937 -0.13080078 44.55460937 -0.13080078 46.140625 -0.13671875 C47.12546875 -0.13542969 48.1103125 -0.13414062 49.125 -0.1328125 C50.03507812 -0.13168457 50.94515625 -0.13055664 51.8828125 -0.12939453 C54 0 54 0 55 1 C55.36258733 3.7228328 55.66836569 6.43154839 55.9375 9.1640625 C56.06499634 10.40221207 56.06499634 10.40221207 56.19506836 11.66537476 C56.46753882 14.31817747 56.73402972 16.97153836 57 19.625 C57.26699952 22.2569213 57.53526336 24.88870603 57.80493164 27.52035522 C57.97257241 29.1596794 58.1385145 30.79917846 58.30249023 32.43887329 C58.76297593 36.97916318 59.32239144 41.48685715 60 46 C61.65301374 35.34333695 62.55454859 24.68184486 63.30224609 13.92626953 C63.41753662 12.30374268 63.41753662 12.30374268 63.53515625 10.6484375 C63.600979 9.68083496 63.66680176 8.71323242 63.73461914 7.71630859 C64 5 64 5 65 0 C71.93 0 78.86 0 86 0 C86.20959852 8.89003302 85.39557049 17.4543324 84.28515625 26.265625 C84.10763199 27.71280195 83.93067646 29.16004877 83.7542572 30.60736084 C83.29199232 34.38644655 82.82172763 38.16449429 82.34979248 41.94238281 C81.87186189 45.78126101 81.40229464 49.62116175 80.93164062 53.4609375 C80.24102259 59.081549 79.54781249 64.70182681 78.84790039 70.32128906 C78.70800186 71.44504944 78.56810333 72.56880981 78.42396545 73.72662354 C77.97990076 77.15518333 77.48892158 80.57754892 77 84 C67.76 84 58.52 84 49 84 C46.75 70.5 46.75 70.5 45.9296875 64.484375 C45.75566406 63.21464844 45.58164063 61.94492187 45.40234375 60.63671875 C45.22832031 59.35410156 45.05429688 58.07148438 44.875 56.75 C44.69156699 55.40753011 44.50797409 54.06508206 44.32421875 52.72265625 C43.88124873 49.48198081 43.43987232 46.2410971 43 43 C42.85377197 44.13542236 42.70754395 45.27084473 42.55688477 46.44067383 C42.01384167 50.651029 41.46686765 54.8608657 40.91870117 59.07055664 C40.68194957 60.89300852 40.44626588 62.71559946 40.21166992 64.53833008 C39.87438776 67.15743663 39.533275 69.77601994 39.19140625 72.39453125 C39.03509483 73.61811089 39.03509483 73.61811089 38.87562561 74.8664093 C38.45874723 78.03613303 38.01365251 80.95904247 37 84 C27.76 84 18.52 84 9 84 C6.66746547 68.16900173 4.62390499 52.3170049 2.72802734 36.42797852 C2.32556095 33.05728364 1.91394333 29.68776676 1.5004921 26.3184042 C1.1033675 23.06589258 0.71642671 19.81216863 0.328125 16.55859375 C0.17925842 15.35456406 0.03039185 14.15053436 -0.12298584 12.91001892 C-0.25352356 11.7968782 -0.38406128 10.68373749 -0.51855469 9.53686523 C-0.63608093 8.56095932 -0.75360718 7.58505341 -0.87469482 6.57957458 C-0.99431757 4.11698034 -0.74765215 2.33276508 0 0 Z " fill="#FDFDFD" transform="translate(33,261)"/>
<path d="M0 0 C7.26 0 14.52 0 22 0 C22.33 9.9 22.66 19.8 23 30 C25.31 30 27.62 30 30 30 C30 20.1 30 10.2 30 0 C35.1665625 -0.0309375 35.1665625 -0.0309375 40.4375 -0.0625 C41.52474365 -0.071604 42.6119873 -0.08070801 43.73217773 -0.09008789 C45.00750366 -0.09383423 45.00750366 -0.09383423 46.30859375 -0.09765625 C47.62041626 -0.10551147 47.62041626 -0.10551147 48.95874023 -0.11352539 C51 0 51 0 52 1 C52.09507821 3.58639038 52.12556376 6.1459856 52.11352539 8.73266602 C52.11367142 9.5423584 52.11381744 10.35205078 52.1139679 11.1862793 C52.11326854 13.87551508 52.1054751 16.56468249 52.09765625 19.25390625 C52.09579215 21.11335716 52.09436821 22.97280856 52.09336853 24.83226013 C52.08954271 29.73629096 52.07971188 34.64029236 52.06866455 39.54431152 C52.05845181 44.54451092 52.05387121 49.54471506 52.04882812 54.54492188 C52.03808967 64.36329628 52.02049235 74.1816411 52 84 C44.74 84 37.48 84 30 84 C29.67 72.78 29.34 61.56 29 50 C25.535 49.505 25.535 49.505 22 49 C22 60.55 22 72.1 22 84 C14.74 84 7.48 84 0 84 C0 56.28 0 28.56 0 0 Z " fill="#FDFDFD" transform="translate(296,120)"/>
<path d="M0 0 C6.93 0 13.86 0 21 0 C21.33 8.58 21.66 17.16 22 26 C22.56589844 24.20691406 23.13179688 22.41382813 23.71484375 20.56640625 C24.45556763 18.23171958 25.19646183 15.89708693 25.9375 13.5625 C26.31068359 12.37849609 26.68386719 11.19449219 27.06835938 9.97460938 C27.42607422 8.84990234 27.78378906 7.72519531 28.15234375 6.56640625 C28.48226318 5.52427979 28.81218262 4.48215332 29.15209961 3.40844727 C30 1 30 1 31 0 C32.41570123 -0.08651611 33.835595 -0.10704904 35.25390625 -0.09765625 C36.53491211 -0.09282227 36.53491211 -0.09282227 37.84179688 -0.08789062 C38.73962891 -0.07951172 39.63746094 -0.07113281 40.5625 -0.0625 C41.46419922 -0.05798828 42.36589844 -0.05347656 43.29492188 -0.04882812 C45.53001314 -0.03700225 47.76497437 -0.0205222 50 0 C51 2 51 2 50.08789062 5.11352539 C49.61699506 6.44382234 49.13927394 7.77171489 48.65625 9.09765625 C48.14651107 10.55381805 47.63741769 12.01020596 47.12890625 13.46679688 C46.31996173 15.75799169 45.50566093 18.04684909 44.67919922 20.33178711 C43.88414064 22.53993621 43.11268106 24.75529582 42.34375 26.97265625 C41.97038513 27.97631981 41.97038513 27.97631981 41.58947754 29.0002594 C38.71422938 37.40675909 41.02194288 44.95067346 43.72265625 53.12109375 C43.98759384 53.94706558 44.25253143 54.77303741 44.52549744 55.6240387 C45.36316051 58.23119072 46.21219354 60.83444714 47.0625 63.4375 C47.91436434 66.0661443 48.76379359 68.6955408 49.61021423 71.32594299 C50.13521891 72.95531515 50.66372111 74.58356535 51.19606018 76.21055603 C53 81.77858332 53 81.77858332 53 84 C45.41 84 37.82 84 30 84 C26.625 75 26.625 75 25.61328125 70.625 C25.41774658 69.79226562 25.22221191 68.95953125 25.02075195 68.1015625 C24.78702881 67.07804687 24.55330566 66.05453125 24.3125 65 C23.1678125 60.05 23.1678125 60.05 22 55 C21.67 64.57 21.34 74.14 21 84 C14.07 84 7.14 84 0 84 C-1.19377191 80.41868426 -1.13980255 77.16582279 -1.12939453 73.43920898 C-1.13114685 72.67145142 -1.13289917 71.90369385 -1.13470459 71.1126709 C-1.1391075 68.57378889 -1.13619088 66.03497647 -1.1328125 63.49609375 C-1.13348592 61.73397305 -1.13445626 59.97185244 -1.13571167 58.20973206 C-1.13718647 54.51684688 -1.1350408 50.82398588 -1.13037109 47.13110352 C-1.12466976 42.39064583 -1.12795675 37.6502447 -1.13394356 32.90978909 C-1.13755147 29.27162752 -1.13640959 25.63347943 -1.13381577 21.99531746 C-1.13314735 20.24695898 -1.13397195 18.49859929 -1.13629532 16.75024223 C-1.13882605 14.31059382 -1.13497547 11.87103798 -1.12939453 9.43139648 C-1.13141876 8.70459183 -1.13344299 7.97778717 -1.13552856 7.22895813 C-1.11426534 2.22853068 -1.11426534 2.22853068 0 0 Z " fill="#FDFDFD" transform="translate(374,120)"/>
<path d="M0 0 C6.93 0 13.86 0 21 0 C21.4375 9.75 21.4375 9.75 21.56811523 12.80371094 C21.6252771 14.00688965 21.6252771 14.00688965 21.68359375 15.234375 C21.72025146 16.05131836 21.75690918 16.86826172 21.79467773 17.70996094 C21.99134275 19.9034423 22.40300594 21.88396413 23 24 C23.20681396 23.30849854 23.41362793 22.61699707 23.62670898 21.90454102 C24.56034724 18.78952946 25.49885583 15.67600659 26.4375 12.5625 C26.76298828 11.47388672 27.08847656 10.38527344 27.42382812 9.26367188 C27.73642578 8.22919922 28.04902344 7.19472656 28.37109375 6.12890625 C28.65911865 5.17056885 28.94714355 4.21223145 29.24389648 3.22485352 C30 1 30 1 31 0 C32.4887186 -0.08669432 33.981445 -0.10703494 35.47265625 -0.09765625 C36.37177734 -0.09443359 37.27089844 -0.09121094 38.19726562 -0.08789062 C39.61555664 -0.07532227 39.61555664 -0.07532227 41.0625 -0.0625 C42.01189453 -0.05798828 42.96128906 -0.05347656 43.93945312 -0.04882812 C46.29303065 -0.0370011 48.64648477 -0.02052025 51 0 C50.41490339 8.68070606 47.17275567 16.3550971 44.15039062 24.4453125 C43.74884766 25.55648438 43.34730469 26.66765625 42.93359375 27.8125 C42.56290771 28.80894531 42.19222168 29.80539062 41.81030273 30.83203125 C40.08072729 37.59399901 40.96627824 42.88993365 43.1171875 49.4296875 C43.3344046 50.10492462 43.5516217 50.78016174 43.77542114 51.4758606 C44.46438025 53.61263634 45.16852632 55.74395772 45.875 57.875 C46.57217061 59.99950251 47.26575537 62.12503142 47.95315552 64.25271606 C48.57973172 66.18894279 49.2170196 68.1216937 49.85498047 70.05419922 C51.18303401 74.63074536 52.06543921 79.32719603 53 84 C45.41 84 37.82 84 30 84 C29.21625 81.195 28.4325 78.39 27.625 75.5 C27.38217285 74.63310547 27.1393457 73.76621094 26.88916016 72.87304688 C25.51308763 67.93306967 24.2222311 62.98030617 23 58 C22.25484101 61.38636309 21.83229437 64.61943103 21.68359375 68.08203125 C21.64548584 68.9222583 21.60737793 69.76248535 21.56811523 70.62817383 C21.50346069 72.20441528 21.50346069 72.20441528 21.4375 73.8125 C21.293125 77.174375 21.14875 80.53625 21 84 C14.07 84 7.14 84 0 84 C0 56.28 0 28.56 0 0 Z " fill="#FDFDFD" transform="translate(278,261)"/>
<path d="M0 0 C37.75862069 0 37.75862069 0 43.9375 3.8125 C48.69012158 8.85315925 48.33626568 14.44067272 48.3125 21 C48.32861328 21.88945312 48.34472656 22.77890625 48.36132812 23.6953125 C48.36613555 30.13725704 47.31647593 33.55115402 42.8125 38.3125 C42.214375 38.869375 41.61625 39.42625 41 40 C41.94875 40.721875 42.8975 41.44375 43.875 42.1875 C46.85240257 44.452915 47.86998451 46.43444047 49 50 C49.16496802 52.68010949 49.23378795 55.2499358 49.1953125 57.92578125 C49.1924826 58.67337204 49.18965271 59.42096283 49.18673706 60.19120789 C49.17559469 62.5651388 49.15050162 64.93868425 49.125 67.3125 C49.11496249 68.9277289 49.10583799 70.54296376 49.09765625 72.15820312 C49.07567489 76.10561594 49.04118657 80.05274274 49 84 C45.68751813 84.02888146 42.37506833 84.04675799 39.0625 84.0625 C38.11697266 84.07087891 37.17144531 84.07925781 36.19726562 84.08789062 C34.84858398 84.09272461 34.84858398 84.09272461 33.47265625 84.09765625 C32.64000244 84.10289307 31.80734863 84.10812988 30.94946289 84.11352539 C29 84 29 84 28 83 C27.93657001 80.76650692 27.94084148 78.53104208 27.97265625 76.296875 C27.98531149 74.91015883 27.99767178 73.52343993 28.00976562 72.13671875 C28.03451308 69.94669168 28.06239574 67.75680508 28.09594727 65.56689453 C28.1262934 63.45604594 28.14397588 61.34537325 28.16015625 59.234375 C28.17699463 57.96819336 28.19383301 56.70201172 28.21118164 55.39746094 C28.0040217 52.06470049 27.68961182 49.87556696 26 47 C24.68 46.67 23.36 46.34 22 46 C21.67 58.54 21.34 71.08 21 84 C14.07 84 7.14 84 0 84 C0 56.28 0 28.56 0 0 Z M22 14 C20.55611429 15.21428988 20.55611429 15.21428988 20.90234375 18.81640625 C20.90901911 20.39846682 20.92098125 21.98051159 20.9375 23.5625 C20.94201172 24.36880859 20.94652344 25.17511719 20.95117188 26.00585938 C20.96299482 28.00393756 20.98093086 30.00197783 21 32 C23.9554301 31.66551131 23.9554301 31.66551131 27 31 C29.44540638 27.22073559 29.31974256 23.39646024 29 19 C28.47462432 16.61116531 28.47462432 16.61116531 27 15 C24.49582411 14.09871362 24.49582411 14.09871362 22 14 Z " fill="#FDFDFD" transform="translate(416,261)"/>
<path d="M0 0 C10.56 0 21.12 0 32 0 C34.90079847 20.12615848 37.79689981 40.25318057 40.54556274 60.40078735 C40.76428635 62.0019981 40.98414596 63.6030541 41.20516968 65.20394897 C41.51257279 67.43369569 41.81554382 69.66399905 42.1171875 71.89453125 C42.28847168 73.15112549 42.45975586 74.40771973 42.63623047 75.70239258 C43 79 43 79 43 84 C35.74 84 28.48 84 21 84 C20.27562166 80.37810828 19.88414407 77.76234736 19.9375 74.1875 C19.94652344 73.39730469 19.95554688 72.60710937 19.96484375 71.79296875 C19.97644531 71.20128906 19.98804688 70.60960937 20 70 C17.69 70 15.38 70 13 70 C12.67 74.62 12.34 79.24 12 84 C4.74 84 -2.52 84 -10 84 C-10 78.21971846 -9.91916351 73.25148672 -9.18969727 67.63183594 C-9.10352142 66.95580322 -9.01734558 66.27977051 -8.92855835 65.58325195 C-8.64665531 63.38287903 -8.35668972 61.18365663 -8.06640625 58.984375 C-7.86657102 57.43985697 -7.66719226 55.89527982 -7.46824646 54.35064697 C-7.05219946 51.1294622 -6.63246782 47.90878824 -6.2097168 44.68847656 C-5.66883224 40.56795677 -5.13446378 36.44662663 -4.60249424 32.32494736 C-4.09274649 28.37779301 -3.57966548 24.431074 -3.06640625 20.484375 C-2.969415 19.73623283 -2.87242374 18.98809067 -2.77249336 18.21727753 C-2.49673523 16.0948014 -2.2185953 13.97265147 -1.93969727 11.85058594 C-1.70320213 10.04264557 -1.70320213 10.04264557 -1.46192932 8.19818115 C-1.06511902 5.45085344 -0.54438631 2.72193157 0 0 Z M16 26 C13.7549974 35.27934409 13.39327237 44.4993676 13 54 C14.98 54 16.96 54 19 54 C19.30470113 44.55426495 18.14169926 35.3578564 17 26 C16.67 26 16.34 26 16 26 Z " fill="#FCFCFC" transform="translate(151,261)"/>
<path d="M0 0 C5.19946238 4.30493122 8.58827584 9.26097017 9.3359375 16.05078125 C9.42919877 23.83809689 8.90952017 29.91319848 3.36328125 35.7109375 C2.68845703 36.34902344 2.68845703 36.34902344 2 37 C2.598125 37.268125 3.19625 37.53625 3.8125 37.8125 C6.61772535 39.33533662 8.56432087 40.64980571 9.56933594 43.7644043 C10.45921606 48.38381033 10.2276053 53.12361004 10.25 57.8125 C10.270625 58.88048828 10.29125 59.94847656 10.3125 61.04882812 C10.34721536 68.06567026 10.01410859 73.32189224 5.421875 78.92578125 C4.87015625 79.38339844 4.3184375 79.84101563 3.75 80.3125 C3.20859375 80.78300781 2.6671875 81.25351563 2.109375 81.73828125 C-5.92276189 86.54268906 -18.03141729 86.45479289 -26.96484375 84.27734375 C-32.61160329 81.95662893 -35.78909885 78.86792379 -38.1875 73.1875 C-40.04382005 65.90501366 -40.44781699 58.49434911 -40 51 C-39 50 -39 50 -37.14233398 49.88647461 C-35.95619507 49.89432983 -35.95619507 49.89432983 -34.74609375 49.90234375 C-33.46508789 49.90717773 -33.46508789 49.90717773 -32.15820312 49.91210938 C-31.26037109 49.92048828 -30.36253906 49.92886719 -29.4375 49.9375 C-28.53580078 49.94201172 -27.63410156 49.94652344 -26.70507812 49.95117188 C-24.46998686 49.96299775 -22.23502563 49.9794778 -20 50 C-19.92652344 51.77117187 -19.92652344 51.77117187 -19.8515625 53.578125 C-19.77651121 55.13543937 -19.70096439 56.69272991 -19.625 58.25 C-19.5940625 59.02730469 -19.563125 59.80460937 -19.53125 60.60546875 C-19.27341758 66.07379907 -19.27341758 66.07379907 -17 71 C-16.01 71 -15.02 71 -14 71 C-12.18051024 67.36102049 -12.81529547 63.06840712 -12.8125 59.0625 C-12.79413086 57.68288086 -12.79413086 57.68288086 -12.77539062 56.27539062 C-12.77345703 55.39173828 -12.77152344 54.50808594 -12.76953125 53.59765625 C-12.76542236 52.78820557 -12.76131348 51.97875488 -12.75708008 51.14477539 C-12.86807683 48.70222093 -12.86807683 48.70222093 -15 46 C-17.42521494 45.41810734 -17.42521494 45.41810734 -20.125 45.3125 C-21.03507812 45.24675781 -21.94515625 45.18101562 -22.8828125 45.11328125 C-23.93082031 45.05720703 -23.93082031 45.05720703 -25 45 C-25.02686553 43.02090602 -25.04633375 41.04171029 -25.0625 39.0625 C-25.07410156 37.96035156 -25.08570313 36.85820312 -25.09765625 35.72265625 C-25 33 -25 33 -24 32 C-21.42794627 31.4284325 -18.84216087 30.97130198 -16.25 30.5 C-14.04154394 30.22050243 -14.04154394 30.22050243 -13 29 C-12.91348389 27.58429877 -12.89295096 26.164405 -12.90234375 24.74609375 C-12.90717773 23.46508789 -12.90717773 23.46508789 -12.91210938 22.15820312 C-12.92048828 21.26037109 -12.92886719 20.36253906 -12.9375 19.4375 C-12.94201172 18.53580078 -12.94652344 17.63410156 -12.95117188 16.70507812 C-12.96299775 14.46998686 -12.9794778 12.23502563 -13 10 C-15.47266765 10.34444881 -15.47266765 10.34444881 -18 11 C-19.41634833 13.83269666 -19.3463005 16.47466438 -19.5625 19.625 C-19.64628906 20.81351563 -19.73007813 22.00203125 -19.81640625 23.2265625 C-19.90728516 24.59941406 -19.90728516 24.59941406 -20 26 C-23.88331032 27.33769559 -27.66765223 26.9309827 -31.6875 26.625 C-32.37650391 26.58117187 -33.06550781 26.53734375 -33.77539062 26.4921875 C-38.86837798 26.13162202 -38.86837798 26.13162202 -40 25 C-39.95142068 16.72937125 -39.67237214 8.11750816 -33.9375 1.6875 C-23.58652165 -4.25880671 -10.9174673 -5.04139927 0 0 Z " fill="#FDFDFD" transform="translate(259,121)"/>
<path d="M0 0 C4.03075229 3.15821297 6.01440125 6.6488094 7.0625 11.625 C8.49532573 24.80229891 2.0497077 34.78067422 -4.64941406 45.53369141 C-6.96966738 49.30080474 -9.19978666 53.12098711 -11.4375 56.9375 C-11.87078613 57.67307129 -12.30407227 58.40864258 -12.75048828 59.16650391 C-14.92897822 62.84895519 -14.92897822 62.84895519 -16.9375 66.625 C-9.3475 66.625 -1.7575 66.625 6.0625 66.625 C6.0625 71.245 6.0625 75.865 6.0625 80.625 C-10.1075 80.625 -26.2775 80.625 -42.9375 80.625 C-42.9375 66.86754562 -42.9375 66.86754562 -39.375 61.4375 C-38.79455933 60.4794043 -38.79455933 60.4794043 -38.20239258 59.50195312 C-37.31706048 58.04491086 -36.42002129 56.59494117 -35.51367188 55.15087891 C-33.00105682 51.1243121 -30.57353337 47.04706769 -28.13500977 42.9753418 C-26.81889331 40.78160123 -25.49668667 38.5915002 -24.16772461 36.40551758 C-17.29818057 26.45019256 -17.29818057 26.45019256 -14.6875 15.125 C-14.77 13.97 -14.8525 12.815 -14.9375 11.625 C-16.5875 11.295 -18.2375 10.965 -19.9375 10.625 C-22.20704631 14.02931947 -22.30299949 15.79024202 -22.5625 19.8125 C-22.68625 21.730625 -22.81 23.64875 -22.9375 25.625 C-29.5375 25.625 -36.1375 25.625 -42.9375 25.625 C-43.28279731 16.53217083 -42.95606755 9.1226612 -37.1875 1.75 C-27.72047745 -8.39827231 -10.86221197 -7.26439071 0 0 Z " fill="#FDFDFD" transform="translate(184.9375,123.375)"/>
<path d="M0 0 C1.51815699 0.00015911 3.0363194 0.00585313 4.55444336 0.01586914 C5.35208603 0.01728409 6.1497287 0.01869904 6.97154236 0.02015686 C9.52916146 0.02577223 12.08669429 0.03832727 14.64428711 0.05102539 C16.37410356 0.05603841 18.10392137 0.06060166 19.83374023 0.06469727 C24.08312264 0.07574664 28.33244023 0.09302153 32.58178711 0.11352539 C32.60863023 2.9260882 32.62854899 5.7383978 32.64428711 8.55102539 C32.65266602 9.3534668 32.66104492 10.1559082 32.66967773 10.98266602 C32.67830141 13.0264776 32.63406861 15.07036441 32.58178711 17.11352539 C30.7035382 18.9917743 27.54243435 18.50454936 25.01928711 18.67602539 C23.22297852 18.80170898 23.22297852 18.80170898 21.39038086 18.92993164 C20.46354492 18.99051758 19.53670898 19.05110352 18.58178711 19.11352539 C18.58178711 23.07352539 18.58178711 27.03352539 18.58178711 31.11352539 C22.87178711 31.44352539 27.16178711 31.77352539 31.58178711 32.11352539 C31.58178711 37.72352539 31.58178711 43.33352539 31.58178711 49.11352539 C25.14678711 49.60852539 25.14678711 49.60852539 18.58178711 50.11352539 C18.58178711 55.39352539 18.58178711 60.67352539 18.58178711 66.11352539 C23.4727682 66.36310455 23.4727682 66.36310455 28.36474609 66.59155273 C30.10943822 66.69397722 31.84706759 66.90094704 33.58178711 67.11352539 C35.13076696 70.21148509 34.4141825 73.37569091 34.14428711 76.73852539 C34.09208008 77.44493164 34.03987305 78.15133789 33.98608398 78.87915039 C33.85637504 80.62432526 33.71973757 82.36898264 33.58178711 84.11352539 C28.33073269 84.13817467 23.07971166 84.15636107 17.82861328 84.16845703 C16.0408469 84.17349757 14.25308466 84.18032993 12.46533203 84.18896484 C9.90127543 84.20104269 7.33727314 84.20675633 4.77319336 84.21118164 C3.56694054 84.21892357 3.56694054 84.21892357 2.33631897 84.2268219 C0.41776996 84.22701754 -1.50066657 84.17554522 -3.41821289 84.11352539 C-5.15854644 82.37319184 -4.54426124 80.11578992 -4.55374146 77.79638672 C-4.55171722 77.03479248 -4.54969299 76.27319824 -4.54760742 75.48852539 C-4.54935974 74.69019287 -4.55111206 73.89186035 -4.55291748 73.06933594 C-4.55733656 70.4173773 -4.55439782 67.76548477 -4.55102539 65.11352539 C-4.55169841 63.27888984 -4.55266843 61.44425438 -4.55392456 59.60961914 C-4.55540161 55.75935011 -4.55324675 51.90910424 -4.54858398 48.05883789 C-4.54288669 43.11196042 -4.54616566 38.1651372 -4.55215645 33.21826172 C-4.55576187 29.42829984 -4.55462356 25.63835093 -4.55202866 21.84838867 C-4.55135933 20.02384434 -4.55218799 18.19929884 -4.55450821 16.37475586 C-4.55703443 13.82931378 -4.55319459 11.2839608 -4.54760742 8.73852539 C-4.55064377 7.59613403 -4.55064377 7.59613403 -4.55374146 6.43066406 C-4.52807174 0.15038593 -4.52807174 0.15038593 0 0 Z " fill="#FDFDFD" transform="translate(357.418212890625,260.886474609375)"/>
<path d="M0 0 C7.26 0 14.52 0 22 0 C22 22.11 22 44.22 22 67 C25.3 67 28.6 67 32 67 C33.32 67.33 34.64 67.66 36 68 C36 73.28 36 78.56 36 84 C24.12 84 12.24 84 0 84 C0 56.28 0 28.56 0 0 Z " fill="#FDFDFD" transform="translate(218,261)"/>
<path d="M0 0 C0 27.72 0 55.44 0 84 C-6.6 84 -13.2 84 -20 84 C-20.029729 81.68427979 -20.029729 81.68427979 -20.06005859 79.32177734 C-20.13622248 73.5852854 -20.22492376 67.84904352 -20.31738281 62.11279297 C-20.35562791 59.63172346 -20.39048853 57.15059935 -20.421875 54.66943359 C-20.46762202 51.09973661 -20.52560169 47.53041406 -20.5859375 43.9609375 C-20.59748871 42.85446869 -20.60903992 41.74799988 -20.62094116 40.60800171 C-20.64081085 39.56737579 -20.66068054 38.52674988 -20.68115234 37.45458984 C-20.69447601 36.5441391 -20.70779968 35.63368835 -20.7215271 34.69564819 C-20.96548698 31.37997502 -20.96548698 31.37997502 -23 26 C-27.29 25.34 -31.58 24.68 -36 24 C-36.125 16.25 -36.125 16.25 -35 14 C-32.98295178 13.16687139 -30.93503467 12.40780825 -28.875 11.6875 C-22.65720783 9.37200237 -17.35682445 7.11437517 -13.25 1.6875 C-11 0 -11 0 0 0 Z " fill="#FDFDFD" transform="translate(114,120)"/>
<path d="M0 0 C0.33 0 0.66 0 1 0 C1.08333357 4.8333472 0.95261487 9.23692563 0 14 C-0.33 14 -0.66 14 -1 14 C-1.98329211 9.94392005 -2.23600253 6.16937798 -2 2 C-1.34 1.34 -0.68 0.68 0 0 Z " fill="#E7E6E6" transform="translate(59,305)"/>
</svg>
