<?xml version="1.0" encoding="UTF-8"?>
<svg version="1.1" xmlns="http://www.w3.org/2000/svg" width="400" height="400">
<path d="M0 0 C6.93 0 13.86 0 21 0 C21.66 4.29 22.32 8.58 23 13 C24.13796231 10.72407537 24.27034843 9.02616725 24.5 6.5 C24.88888889 2.22222222 24.88888889 2.22222222 26 0 C33.26 0 40.52 0 48 0 C49.39004992 4.86517472 50.39456125 9.05558357 51 14 C51.13277344 13.07316406 51.26554687 12.14632812 51.40234375 11.19140625 C51.57894531 9.99386719 51.75554687 8.79632813 51.9375 7.5625 C52.11152344 6.36753906 52.28554687 5.17257813 52.46484375 3.94140625 C53 1 53 1 54 0 C55.63472882 -0.08700342 57.27314055 -0.10701063 58.91015625 -0.09765625 C60.39418945 -0.09282227 60.39418945 -0.09282227 61.90820312 -0.08789062 C62.94912109 -0.07951172 63.99003906 -0.07113281 65.0625 -0.0625 C66.62967773 -0.05573242 66.62967773 -0.05573242 68.22851562 -0.04882812 C70.8190666 -0.03699913 73.40950559 -0.02051689 76 0 C75.89042969 0.97453125 75.78085938 1.9490625 75.66796875 2.953125 C75.50769449 4.38540347 75.3475511 5.81769658 75.1875 7.25 C75.09984375 8.03270264 75.0121875 8.81540527 74.921875 9.62182617 C74.35250296 14.73691249 73.80340614 19.85373815 73.26953125 24.97265625 C73.07870972 26.79071777 73.07870972 26.79071777 72.8840332 28.64550781 C72.63390275 31.03391174 72.38621977 33.42257367 72.14135742 35.81152344 C71.4267202 42.61196281 70.50260203 49.34399696 69.42822266 56.09643555 C68.90302222 59.65755798 68.62857964 63.15607653 68.4375 66.75 C68.10593714 72.89406286 68.10593714 72.89406286 67 74 C65.08541718 74.09971786 63.16717683 74.13080589 61.25 74.1328125 C60.0846875 74.13410156 58.919375 74.13539063 57.71875 74.13671875 C56.4915625 74.13285156 55.264375 74.12898438 54 74.125 C52.15921875 74.13080078 52.15921875 74.13080078 50.28125 74.13671875 C49.1159375 74.13542969 47.950625 74.13414062 46.75 74.1328125 C45.67234375 74.13168457 44.5946875 74.13055664 43.484375 74.12939453 C41 74 41 74 40 73 C39.51993743 69.57955416 39.12748372 66.15930505 38.75 62.7265625 C38.63500338 59.0553489 38.63500338 59.0553489 37 56 C36.95101562 56.88042969 36.90203125 57.76085937 36.8515625 58.66796875 C36.77679688 59.82941406 36.70203125 60.99085938 36.625 62.1875 C36.55539063 63.33605469 36.48578125 64.48460937 36.4140625 65.66796875 C36 69 36 69 34 74 C25.42 74 16.84 74 8 74 C3.83022603 46.61848424 3.83022603 46.61848424 2.65332031 34.3828125 C2.20780394 29.786535 1.60180359 25.2502114 0.875 20.6875 C-0.17378347 13.74750311 -0.14309247 7.01153125 0 0 Z M5 5 C4.8145834 9.72812324 5.1035358 14.07902537 5.875 18.75 C6.78895782 24.30405137 7.4146413 29.83700513 7.9375 35.4375 C8.9641238 46.33745636 10.4488702 57.16385076 12 68 C15.91002881 69.11233578 19.18994633 68.90083781 23.25 68.5625 C24.51328125 68.46066406 25.7765625 68.35882813 27.078125 68.25390625 C28.04234375 68.17011719 29.0065625 68.08632813 30 68 C31.73247876 62.59322255 32.50069128 57.45673582 33 51.8125 C33.7048176 44.47883728 34.64049427 37.24587628 36 30 C37.32 29.67 38.64 29.34 40 29 C40.04898438 29.78761719 40.09796875 30.57523438 40.1484375 31.38671875 C40.54343104 37.14136598 41.0683271 42.80567086 42 48.5 C43.06173324 54.98925016 43.56746936 61.43995203 44 68 C50.27 68 56.54 68 63 68 C64.19028162 65.61943675 64.26551933 63.85020645 64.46484375 61.1953125 C64.54154297 60.2256958 64.61824219 59.2560791 64.69726562 58.25708008 C64.77654297 57.22349365 64.85582031 56.18990723 64.9375 55.125 C65.51128147 48.06436021 66.19523926 41.13649225 67.4921875 34.16796875 C68.21305956 29.67083611 68.66976639 25.15579378 69.125 20.625 C69.21265625 19.76753174 69.3003125 18.91006348 69.390625 18.02661133 C69.81940362 13.62255355 70 9.45457988 70 5 C66.04 5 62.08 5 58 5 C56.45826815 15.47337227 55.48808046 25.87374824 54.875 36.4375 C54.78825253 37.86266025 54.70101483 39.28779074 54.61328125 40.71289062 C54.40323792 44.14160494 54.19970468 47.57066607 54 51 C51.525 51.495 51.525 51.495 49 52 C48.94392578 50.25203125 48.94392578 50.25203125 48.88671875 48.46875 C48.51015265 38.5624011 47.73943538 28.77537845 46.5 18.9375 C46.30410278 17.37708984 46.30410278 17.37708984 46.10424805 15.78515625 C45.40490023 10.31552652 45.40490023 10.31552652 44 5 C39.71 5 35.42 5 31 5 C29.23271926 10.20356405 29.23271926 10.20356405 28.40576172 15.35302734 C28.32582977 16.15340424 28.24589783 16.95378113 28.1635437 17.77841187 C28.08637115 18.62239532 28.00919861 19.46637878 27.9296875 20.3359375 C27.84373322 21.21528961 27.75777893 22.09464172 27.66921997 23.00064087 C27.3979292 25.79150784 27.13632666 28.5831842 26.875 31.375 C26.69204657 33.27480136 26.5084596 35.17454181 26.32421875 37.07421875 C25.87547542 41.71547295 25.43541477 46.35747721 25 51 C23.68 51 22.36 51 21 51 C20.9498877 50.34741211 20.89977539 49.69482422 20.84814453 49.02246094 C19.95883826 37.5078605 19.05044453 25.99546151 17.9375 14.5 C17.81882568 13.22914551 17.81882568 13.22914551 17.69775391 11.93261719 C17.64358842 8.15149466 17.64358842 8.15149466 16 5 C14.14712498 4.92773498 12.29166122 4.9161878 10.4375 4.9375 C9.42558594 4.94652344 8.41367187 4.95554688 7.37109375 4.96484375 C6.58863281 4.97644531 5.80617188 4.98804688 5 5 Z " fill="#FBFBFB" transform="translate(20,214)"/>
<path d="M0 0 C0.87454834 0.00523682 1.74909668 0.01047363 2.65014648 0.01586914 C3.59438477 0.0190918 4.53862305 0.02231445 5.51147461 0.02563477 C6.50469727 0.03401367 7.49791992 0.04239258 8.52124023 0.05102539 C9.51833008 0.05553711 10.51541992 0.06004883 11.54272461 0.06469727 C14.01478872 0.07652532 16.48673541 0.0930069 18.95874023 0.11352539 C19.61874023 2.09352539 20.27874023 4.07352539 20.95874023 6.11352539 C21.26811523 5.30915039 21.57749023 4.50477539 21.89624023 3.67602539 C22.95874023 1.11352539 22.95874023 1.11352539 23.95874023 0.11352539 C25.52046768 0.02666936 27.08603368 0.0065032 28.65014648 0.01586914 C29.59438477 0.0190918 30.53862305 0.02231445 31.51147461 0.02563477 C32.50469727 0.03401367 33.49791992 0.04239258 34.52124023 0.05102539 C35.51833008 0.05553711 36.51541992 0.06004883 37.54272461 0.06469727 C40.01478872 0.07652532 42.48673541 0.0930069 44.95874023 0.11352539 C44.31506824 4.76941946 43.10626893 8.98300983 41.58374023 13.42602539 C41.36041016 14.08320557 41.13708008 14.74038574 40.90698242 15.41748047 C40.26114248 17.31738083 39.61006339 19.2154978 38.95874023 21.11352539 C38.37308972 22.84190863 37.7892749 24.57091712 37.20874023 26.30102539 C36.87616211 27.28135742 36.87616211 27.28135742 36.53686523 28.28149414 C36.34608398 28.88606445 36.15530273 29.49063477 35.95874023 30.11352539 C35.76038574 30.73509521 35.56203125 31.35666504 35.35766602 31.99707031 C34.67561744 35.61560096 36.35606216 38.86700232 37.58374023 42.23852539 C39.85862826 48.77756838 42.00032311 55.32885982 43.89624023 61.98852539 C44.11940918 62.74278809 44.34257812 63.49705078 44.57250977 64.27416992 C45.60991807 67.97462474 46.09669814 70.44716567 44.95874023 74.11352539 C41.50042438 74.14247086 38.04213951 74.16030539 34.58374023 74.17602539 C33.59889648 74.1844043 32.61405273 74.1927832 31.59936523 74.20141602 C30.1878418 74.20625 30.1878418 74.20625 28.74780273 74.21118164 C27.87849121 74.21641846 27.00917969 74.22165527 26.11352539 74.22705078 C23.95874023 74.11352539 23.95874023 74.11352539 21.95874023 73.11352539 C21.62874023 72.12352539 21.29874023 71.13352539 20.95874023 70.11352539 C20.62874023 71.10352539 20.29874023 72.09352539 19.95874023 73.11352539 C17.57435315 74.30571893 16.08218022 74.24268561 13.42358398 74.24633789 C12.53219727 74.24762695 11.64081055 74.24891602 10.72241211 74.25024414 C9.32345703 74.24444336 9.32345703 74.24444336 7.89624023 74.23852539 C6.95973633 74.24239258 6.02323242 74.24625977 5.05834961 74.25024414 C4.16825195 74.24895508 3.2781543 74.24766602 2.36108398 74.24633789 C1.13119751 74.244646 1.13119751 74.244646 -0.12353516 74.24291992 C-2.04125977 74.11352539 -2.04125977 74.11352539 -3.04125977 73.11352539 C-3.14089897 70.87965333 -3.16925771 68.6425868 -3.1706543 66.40649414 C-3.17240662 65.70569733 -3.17415894 65.00490051 -3.17596436 64.28286743 C-3.18038242 61.9555619 -3.17744506 59.62833175 -3.17407227 57.30102539 C-3.17474532 55.6905923 -3.17571535 54.08015931 -3.17697144 52.46972656 C-3.17844835 49.09024084 -3.17629407 45.71078149 -3.17163086 42.33129883 C-3.16593357 37.98976034 -3.16921261 33.64828366 -3.17520332 29.30674744 C-3.17880912 25.98001638 -3.17767027 22.65330009 -3.17507553 19.3265686 C-3.17440631 17.72531121 -3.1752345 16.12405249 -3.17755508 14.52279663 C-3.18008192 12.28868028 -3.17624061 10.05466539 -3.1706543 7.82055664 C-3.1698587 6.54672119 -3.16906311 5.27288574 -3.16824341 3.96044922 C-2.99903186 0.16679223 -2.99903186 0.16679223 0 0 Z M1.95874023 6.11352539 C1.85958229 8.01051388 1.83074709 9.91121326 1.8293457 11.81079102 C1.82619354 13.02875366 1.82304138 14.24671631 1.8197937 15.50158691 C1.82158348 16.84098344 1.82363444 18.18037963 1.82592773 19.51977539 C1.82525464 20.88358579 1.82428457 22.24739607 1.82302856 23.61120605 C1.82155186 26.4728306 1.82370527 29.33442399 1.82836914 32.19604492 C1.83406643 35.87171153 1.83078728 39.54730513 1.82479668 43.22296906 C1.82119033 46.04014643 1.82232999 48.85730637 1.82492447 51.67448425 C1.82559353 53.03012602 1.82476603 54.38576935 1.82244492 55.7414093 C1.81991722 57.63302583 1.8244501 59.52464788 1.8293457 61.41625977 C1.8301413 62.4946814 1.83093689 63.57310303 1.83175659 64.6842041 C1.68435477 67.06221719 1.68435477 67.06221719 2.95874023 68.11352539 C6.58874023 68.11352539 10.21874023 68.11352539 13.95874023 68.11352539 C14.28874023 58.21352539 14.61874023 48.31352539 14.95874023 38.11352539 C16.27874023 38.44352539 17.59874023 38.77352539 18.95874023 39.11352539 C19.5645181 41.5089617 20.1687174 43.90476956 20.77124023 46.30102539 C20.95211182 47.0197583 21.1329834 47.73849121 21.31933594 48.47900391 C22.75336747 54.21196718 24.07769844 59.96241329 25.34545898 65.73461914 C25.72805709 68.05224188 25.72805709 68.05224188 26.95874023 69.11352539 C29.14513477 69.18611485 31.33374412 69.19726322 33.52124023 69.17602539 C34.7187793 69.16700195 35.91631836 69.15797852 37.15014648 69.14868164 C38.54040039 69.1312793 38.54040039 69.1312793 39.95874023 69.11352539 C38.96977137 63.9142264 37.53857083 58.88583573 36.08374023 53.80102539 C35.8272168 52.88901367 35.57069336 51.97700195 35.30639648 51.03735352 C34.1078706 46.83649018 32.85292736 42.7218223 31.25952148 38.65258789 C28.77750764 31.89972141 31.48027742 26.37732858 33.90405273 19.97290039 C36.78608911 12.72222098 36.78608911 12.72222098 37.95874023 5.11352539 C34.32874023 5.11352539 30.69874023 5.11352539 26.95874023 5.11352539 C25.99656006 7.94560289 25.03891943 10.77908666 24.08374023 13.61352539 C23.81432617 14.40500977 23.54491211 15.19649414 23.26733398 16.01196289 C21.58913989 21.00561362 20.17002056 25.98616402 18.95874023 31.11352539 C17.63874023 31.11352539 16.31874023 31.11352539 14.95874023 31.11352539 C14.96397705 30.36143799 14.96921387 29.60935059 14.97460938 28.83447266 C14.9953125 25.44833197 15.008379 22.06220455 15.02124023 18.67602539 C15.02961914 17.49202148 15.03799805 16.30801758 15.04663086 15.08813477 C15.04985352 13.96342773 15.05307617 12.8387207 15.05639648 11.67993164 C15.0616333 10.63780518 15.06687012 9.59567871 15.07226562 8.52197266 C15.23179579 6.16223792 15.23179579 6.16223792 13.95874023 5.11352539 C12.1275814 5.01501368 10.2925409 4.9837991 8.45874023 4.98852539 C6.95827148 4.9846582 6.95827148 4.9846582 5.42749023 4.98071289 C3.01474401 4.83482157 3.01474401 4.83482157 1.95874023 6.11352539 Z " fill="#FCFBFB" transform="translate(223.041259765625,213.886474609375)"/>
<path d="M0 0 C3.77812672 3.28400552 4.95276488 6.36012968 5.34765625 11.26171875 C5.82538651 25.42437351 5.82538651 25.42437351 1.81640625 30.6875 C2.47640625 30.6875 3.13640625 30.6875 3.81640625 30.6875 C8.32201472 39.51098325 8.3559393 51.37192278 5.75390625 60.875 C3.9666469 65.23726809 0.89213335 68.35851308 -3.18359375 70.6875 C-7.41075113 71.90687232 -11.69042462 71.8709176 -16.05859375 71.875 C-16.74050781 71.88724609 -17.42242187 71.89949219 -18.125 71.91210938 C-22.83990894 71.92558054 -26.70503394 71.16671101 -31.18359375 69.6875 C-31.18359375 69.0275 -31.18359375 68.3675 -31.18359375 67.6875 C-32.08078125 67.4090625 -32.08078125 67.4090625 -32.99609375 67.125 C-36.18340511 65.03048111 -37.19007538 62.24529931 -38.18359375 58.6875 C-38.5246152 55.19612305 -38.46946578 51.75355785 -38.37109375 48.25 C-38.35755859 47.32767578 -38.34402344 46.40535156 -38.33007812 45.45507812 C-38.29500898 43.19896291 -38.24121211 40.94315197 -38.18359375 38.6875 C-32.73859375 38.1925 -32.73859375 38.1925 -27.18359375 37.6875 C-27.19519531 36.83285156 -27.20679688 35.97820312 -27.21875 35.09765625 C-27.22777344 33.99292969 -27.23679688 32.88820312 -27.24609375 31.75 C-27.25769531 30.64785156 -27.26929688 29.54570312 -27.28125 28.41015625 C-27.18359375 25.6875 -27.18359375 25.6875 -26.18359375 24.6875 C-30.14359375 24.3575 -34.10359375 24.0275 -38.18359375 23.6875 C-39.10445954 7.97139044 -39.10445954 7.97139044 -34.60546875 2.1328125 C-32.6116111 0.10608906 -30.79076058 -1.16789017 -28.18359375 -2.3125 C-26.85328125 -2.9003125 -26.85328125 -2.9003125 -25.49609375 -3.5 C-16.72580075 -5.65120394 -7.78523504 -4.67949727 0 0 Z M-30.68359375 5.125 C-32.6635343 8.50739844 -33.30926909 11.02130432 -33.24609375 14.875 C-33.22546875 16.133125 -33.20484375 17.39125 -33.18359375 18.6875 C-29.88359375 18.6875 -26.58359375 18.6875 -23.18359375 18.6875 C-23.05082031 17.97722656 -22.91804687 17.26695313 -22.78125 16.53515625 C-22.60464844 15.61605469 -22.42804688 14.69695312 -22.24609375 13.75 C-22.07207031 12.83347656 -21.89804688 11.91695312 -21.71875 10.97265625 C-21.18359375 8.6875 -21.18359375 8.6875 -20.18359375 7.6875 C-17.54359375 7.6875 -14.90359375 7.6875 -12.18359375 7.6875 C-12.18359375 13.6275 -12.18359375 19.5675 -12.18359375 25.6875 C-17.13359375 28.1625 -17.13359375 28.1625 -22.18359375 30.6875 C-21.85359375 32.0075 -21.52359375 33.3275 -21.18359375 34.6875 C-20.33474609 34.86925781 -20.33474609 34.86925781 -19.46875 35.0546875 C-18.73527344 35.22226563 -18.00179687 35.38984375 -17.24609375 35.5625 C-16.14974609 35.80613281 -16.14974609 35.80613281 -15.03125 36.0546875 C-13.18359375 36.6875 -13.18359375 36.6875 -12.18359375 38.6875 C-12.08786823 40.26986087 -12.05285328 41.8561539 -12.05078125 43.44140625 C-12.04884766 44.84616211 -12.04884766 44.84616211 -12.046875 46.27929688 C-12.05074219 47.25962891 -12.05460937 48.23996094 -12.05859375 49.25 C-12.05279297 50.72629883 -12.05279297 50.72629883 -12.046875 52.23242188 C-12.04816406 53.16763672 -12.04945313 54.10285156 -12.05078125 55.06640625 C-12.05190918 55.9282251 -12.05303711 56.79004395 -12.05419922 57.67797852 C-12.18359375 59.6875 -12.18359375 59.6875 -13.18359375 60.6875 C-16.05859375 61.0625 -16.05859375 61.0625 -19.18359375 60.6875 C-22.03455244 57.01427899 -22.6194908 53.95417368 -22.87109375 49.375 C-22.93683594 48.30636719 -23.00257813 47.23773438 -23.0703125 46.13671875 C-23.10769531 45.32847656 -23.14507812 44.52023438 -23.18359375 43.6875 C-26.48359375 43.6875 -29.78359375 43.6875 -33.18359375 43.6875 C-34.81812822 50.22563789 -33.82126298 56.49509112 -31.18359375 62.6875 C-29.01700047 65.17970846 -27.38406462 66.47391155 -24.09375 67.05932617 C-21.63095856 67.2268473 -19.21389565 67.23309449 -16.74609375 67.1875 C-15.49602539 67.21070313 -15.49602539 67.21070313 -14.22070312 67.234375 C-7.64723425 67.19280366 -3.89883182 65.40273807 0.81640625 60.6875 C2.05645292 56.41797224 1.96581212 52.09682722 1.94140625 47.6875 C1.94527344 46.98882812 1.94914062 46.29015625 1.953125 45.5703125 C1.9825011 40.04062377 1.9825011 40.04062377 0.81640625 34.6875 C-0.33859375 34.1925 -1.49359375 33.6975 -2.68359375 33.1875 C-3.83859375 32.6925 -4.99359375 32.1975 -6.18359375 31.6875 C-7.12109375 29 -7.12109375 29 -7.18359375 26.6875 C-6.42046875 26.77 -5.65734375 26.8525 -4.87109375 26.9375 C-2.12099907 26.96892556 -2.12099907 26.96892556 -0.55078125 25.06640625 C2.16264413 20.34504609 1.5886694 14.93378352 0.81640625 9.6875 C-0.94468336 5.82987515 -3.26519962 3.52489426 -7.15234375 1.828125 C-14.68682288 -0.31630368 -24.8121533 -0.59965444 -30.68359375 5.125 Z M-17.18359375 10.6875 C-18.50588564 13.33208379 -18.28036569 15.36511301 -18.24609375 18.3125 C-18.23707031 19.31539062 -18.22804687 20.31828125 -18.21875 21.3515625 C-18.20714844 22.12242188 -18.19554687 22.89328125 -18.18359375 23.6875 C-17.19359375 23.3575 -16.20359375 23.0275 -15.18359375 22.6875 C-15.18359375 19.0575 -15.18359375 15.4275 -15.18359375 11.6875 C-15.84359375 11.3575 -16.50359375 11.0275 -17.18359375 10.6875 Z M-18.18359375 39.6875 C-18.23743223 42.14612401 -18.27718413 44.6035755 -18.30859375 47.0625 C-18.32535156 47.76117188 -18.34210938 48.45984375 -18.359375 49.1796875 C-18.37703642 51.01647486 -18.28662636 52.85351963 -18.18359375 54.6875 C-17.52359375 55.3475 -16.86359375 56.0075 -16.18359375 56.6875 C-14.82923791 55.55850701 -14.82923791 55.55850701 -15.05078125 52.59765625 C-15.05335938 51.32792969 -15.0559375 50.05820313 -15.05859375 48.75 C-15.05601562 47.48285156 -15.0534375 46.21570313 -15.05078125 44.91015625 C-14.95853306 41.79595111 -14.95853306 41.79595111 -16.18359375 39.6875 C-16.84359375 39.6875 -17.50359375 39.6875 -18.18359375 39.6875 Z " fill="#FBFBFB" transform="translate(211.18359375,101.3125)"/>
<path d="M0 0 C0.83265381 0.00523682 1.66530762 0.01047363 2.52319336 0.01586914 C3.42231445 0.0190918 4.32143555 0.02231445 5.24780273 0.02563477 C6.66609375 0.03820312 6.66609375 0.03820312 8.11303711 0.05102539 C9.06243164 0.05553711 10.01182617 0.06004883 10.98999023 0.06469727 C13.34353242 0.07652411 15.69704243 0.09446018 18.05053711 0.11352539 C18.38053711 3.08352539 18.71053711 6.05352539 19.05053711 9.11352539 C20.37053711 6.14352539 21.69053711 3.17352539 23.05053711 0.11352539 C29.98053711 0.11352539 36.91053711 0.11352539 44.05053711 0.11352539 C41.80870408 10.20177403 41.80870408 10.20177403 40.32397461 14.08618164 C40.01459961 14.92342773 39.70522461 15.76067383 39.38647461 16.62329102 C38.74358861 18.33112027 38.09510536 20.03685256 37.44116211 21.74047852 C33.87249824 31.46433785 34.93021436 37.95674392 38.36303711 47.48852539 C38.98563859 49.26664402 39.6067381 51.04528927 40.22631836 52.82446289 C40.53134277 53.69683594 40.83636719 54.56920898 41.15063477 55.46801758 C43.13394438 61.29849587 44.84223488 67.07201425 46.05053711 73.11352539 C38.13053711 73.11352539 30.21053711 73.11352539 22.05053711 73.11352539 C21.06053711 70.47352539 20.07053711 67.83352539 19.05053711 65.11352539 C19.07116211 66.24790039 19.09178711 67.38227539 19.11303711 68.55102539 C19.05053711 72.11352539 19.05053711 72.11352539 18.05053711 73.11352539 C16.48880966 73.20038142 14.92324367 73.22054759 13.35913086 73.21118164 C12.41489258 73.20795898 11.4706543 73.20473633 10.49780273 73.20141602 C9.50458008 73.19303711 8.51135742 73.1846582 7.48803711 73.17602539 C6.49094727 73.17151367 5.49385742 73.16700195 4.46655273 73.16235352 C1.99448862 73.15052546 -0.47745807 73.13404388 -2.94946289 73.11352539 C-2.97258793 63.74316601 -2.9903788 54.37281638 -3.00127506 45.00243473 C-3.00650354 40.6518408 -3.01360054 36.30126632 -3.02490234 31.95068359 C-3.03573248 27.75562281 -3.04173999 23.5605808 -3.04434013 19.36550713 C-3.04619415 17.76145571 -3.04981433 16.15740537 -3.05519295 14.55336189 C-3.06240508 12.31436024 -3.06345376 10.0754371 -3.06298828 7.83642578 C-3.06520889 6.55957413 -3.0674295 5.28272247 -3.06971741 3.96717834 C-2.90967873 0.16944278 -2.90967873 0.16944278 0 0 Z M2.05053711 5.11352539 C2.05053711 26.23352539 2.05053711 47.35352539 2.05053711 69.11352539 C6.01053711 69.11352539 9.97053711 69.11352539 14.05053711 69.11352539 C14.05053711 58.88352539 14.05053711 48.65352539 14.05053711 38.11352539 C15.37053711 38.11352539 16.69053711 38.11352539 18.05053711 38.11352539 C19.56853012 43.43662087 21.02937732 48.73272446 22.05053711 54.17602539 C23.01809526 59.28440446 24.49220929 64.1552096 26.05053711 69.11352539 C30.01053711 69.11352539 33.97053711 69.11352539 38.05053711 69.11352539 C39.17407306 65.74291755 38.92113679 64.88096361 37.94116211 61.57836914 C37.55057617 60.23935547 37.55057617 60.23935547 37.15209961 58.87329102 C36.87108398 57.94194336 36.59006836 57.0105957 36.30053711 56.05102539 C36.03499023 55.14674805 35.76944336 54.2424707 35.49584961 53.31079102 C34.4183606 49.65203587 33.33298009 45.99834052 32.1730957 42.36474609 C31.89804199 41.49293701 31.62298828 40.62112793 31.33959961 39.72290039 C31.08903809 38.94785156 30.83847656 38.17280273 30.58032227 37.37426758 C29.02516138 30.73795893 31.31444534 25.11188043 34.05053711 19.11352539 C35.57139128 14.49357215 36.87106304 9.83142167 38.05053711 5.11352539 C34.09053711 5.11352539 30.13053711 5.11352539 26.05053711 5.11352539 C24.90348538 8.86315665 23.75784676 12.61320962 22.61303711 16.36352539 C22.28754883 17.42700195 21.96206055 18.49047852 21.62670898 19.58618164 C21.31411133 20.61098633 21.00151367 21.63579102 20.67944336 22.69165039 C20.39141846 23.63427734 20.10339355 24.5769043 19.80664062 25.5480957 C19.16436367 27.72731631 18.58002645 29.90466857 18.05053711 32.11352539 C17.06053711 31.78352539 16.07053711 31.45352539 15.05053711 31.11352539 C14.72053711 22.53352539 14.39053711 13.95352539 14.05053711 5.11352539 C10.09053711 5.11352539 6.13053711 5.11352539 2.05053711 5.11352539 Z " fill="#FBFBFB" transform="translate(301.949462890625,98.886474609375)"/>
<path d="M0 0 C6.93 0 13.86 0 21 0 C22 1 22 1 22.11352539 3.22485352 C22.10828857 4.18319092 22.10305176 5.14152832 22.09765625 6.12890625 C22.09443359 7.16337891 22.09121094 8.19785156 22.08789062 9.26367188 C22.07951172 10.35228516 22.07113281 11.44089844 22.0625 12.5625 C22.05798828 13.65498047 22.05347656 14.74746094 22.04882812 15.87304688 C22.03699826 18.58208495 22.02051543 21.29101599 22 24 C22.66 24.33 23.32 24.66 24 25 C24 16.75 24 8.5 24 0 C31.26 0 38.52 0 46 0 C46 24.09 46 48.18 46 73 C38.74 73 31.48 73 24 73 C24 63.76 24 54.52 24 45 C23.34 45 22.68 45 22 45 C22 54.24 22 63.48 22 73 C14.74 73 7.48 73 0 73 C0 48.91 0 24.82 0 0 Z M4 5 C3.97744575 13.1969097 3.95908304 21.39379545 3.94818783 29.59072781 C3.9429598 33.39651577 3.93586362 37.20228148 3.92456055 41.00805664 C3.9137288 44.67792544 3.90772256 48.34777278 3.90512276 52.01765633 C3.90326903 53.42074992 3.8996494 54.82384229 3.89426994 56.2269268 C3.88705581 58.1856968 3.88659191 60.1444882 3.88647461 62.10327148 C3.884254 63.22023911 3.88203339 64.33720673 3.87974548 65.48802185 C3.71489224 67.93905414 3.71489224 67.93905414 5 69 C6.83115883 69.09851171 8.66619933 69.12972629 10.5 69.125 C12.00046875 69.12886719 12.00046875 69.12886719 13.53125 69.1328125 C15.94399622 69.27870382 15.94399622 69.27870382 17 68 C17.08767112 65.92737924 17.10695873 63.85179706 17.09765625 61.77734375 C17.09443359 60.51728516 17.09121094 59.25722656 17.08789062 57.95898438 C17.07953403 56.61848891 17.07106907 55.27799412 17.0625 53.9375 C17.0574866 52.59310058 17.05292342 51.2486994 17.04882812 49.90429688 C17.03699488 46.60282059 17.02050971 43.30143197 17 40 C20.63 40 24.26 40 28 40 C27.99476318 40.84296631 27.98952637 41.68593262 27.98413086 42.55444336 C27.96712174 45.67227936 27.95456594 48.79009177 27.94506836 51.90795898 C27.94002943 53.25920386 27.93319823 54.61044326 27.92456055 55.96166992 C27.91247581 57.90020434 27.90730172 59.838778 27.90234375 61.77734375 C27.89710693 62.94515381 27.89187012 64.11296387 27.88647461 65.31616211 C27.69338505 67.91891551 27.69338505 67.91891551 29 69 C30.83115883 69.09851171 32.66619933 69.12972629 34.5 69.125 C36.00046875 69.12886719 36.00046875 69.12886719 37.53125 69.1328125 C39.94399622 69.27870382 39.94399622 69.27870382 41 68 C41.0940067 66.03630847 41.11743381 64.06920801 41.11352539 62.10327148 C41.11344986 60.84203964 41.11337433 59.5808078 41.11329651 58.28135681 C41.1081891 56.89460206 41.10297309 55.50784771 41.09765625 54.12109375 C41.09579201 52.71004791 41.09436814 51.29900143 41.09336853 49.88795471 C41.08954379 46.16759465 41.0797139 42.4472734 41.06866455 38.72692871 C41.05844948 34.93319219 41.05387071 31.13944942 41.04882812 27.34570312 C41.03809158 19.89711564 41.02049515 12.4485682 41 5 C36.71 5 32.42 5 28 5 C28 12.92 28 20.84 28 29 C24.37 29 20.74 29 17 29 C17 21.08 17 13.16 17 5 C12.71 5 8.42 5 4 5 Z " fill="#FAFAFA" transform="translate(236,99)"/>
<path d="M0 0 C1.99279829 -0.00959229 3.98545548 -0.04073135 5.97802734 -0.07226562 C14.20249136 -0.10552938 21.81501131 -0.02545852 28.52880859 5.17773438 C31.68191942 9.51326176 31.21188887 14.50223268 31.21630859 19.67773438 C31.22855469 20.42861328 31.24080078 21.17949219 31.25341797 21.953125 C31.26470601 26.23129194 30.84081289 29.29393252 29.02880859 33.24023438 C28.7901021 36.31815821 28.7901021 36.31815821 30.51049805 38.96728516 C32.28759538 42.79808864 32.37391555 45.40160681 32.32177734 49.60742188 C32.3175325 50.28700958 32.31328766 50.96659729 32.30891418 51.66677856 C32.29225125 53.81668362 32.25462576 55.96561736 32.21630859 58.11523438 C32.20124559 59.58136658 32.18756002 61.04751361 32.17529297 62.51367188 C32.1423894 66.08950312 32.09069523 69.66477379 32.02880859 73.24023438 C28.90430327 73.43668531 25.77919414 73.62086927 22.65380859 73.80273438 C21.76435547 73.85880859 20.87490234 73.91488281 19.95849609 73.97265625 C18.68232422 74.04516602 18.68232422 74.04516602 17.38037109 74.11914062 C16.2020874 74.18983765 16.2020874 74.18983765 15 74.26196289 C13.02880859 74.24023438 13.02880859 74.24023438 11.02880859 73.24023438 C10.69880859 63.34023438 10.36880859 53.44023437 10.02880859 43.24023438 C9.69880859 53.14023437 9.36880859 63.04023438 9.02880859 73.24023438 C4.14068359 73.51867187 4.14068359 73.51867187 -0.84619141 73.80273438 C-2.38509033 73.89470093 -2.38509033 73.89470093 -3.95507812 73.98852539 C-5.16574951 74.05317993 -5.16574951 74.05317993 -6.40087891 74.11914062 C-7.64200439 74.18983765 -7.64200439 74.18983765 -8.90820312 74.26196289 C-10.97119141 74.24023438 -10.97119141 74.24023438 -12.97119141 73.24023438 C-12.99431644 63.86987499 -13.01210731 54.49952536 -13.02300358 45.12914371 C-13.02823206 40.77854978 -13.03532906 36.42797531 -13.04663086 32.07739258 C-13.057461 27.8823318 -13.06346851 23.68728979 -13.06606865 19.49221611 C-13.06792267 17.88816469 -13.07154285 16.28411435 -13.07692146 14.68007088 C-13.08413359 12.44106922 -13.08518228 10.20214608 -13.0847168 7.96313477 C-13.08693741 6.68628311 -13.08915802 5.40943146 -13.09144592 4.09388733 C-12.81984016 -2.3513474 -5.07295849 0.0147577 0 0 Z M-7.97119141 6.24023438 C-8.07040004 8.16785255 -8.09918505 10.09912792 -8.10058594 12.02929688 C-8.1037381 13.26728027 -8.10689026 14.50526367 -8.11013794 15.78076172 C-8.10834816 17.14225296 -8.1062972 18.50374389 -8.10400391 19.86523438 C-8.104677 21.25146502 -8.10564707 22.63769554 -8.10690308 24.02392578 C-8.10837981 26.93262859 -8.1062263 29.84130075 -8.1015625 32.75 C-8.09586521 36.48620036 -8.09914435 40.22232889 -8.10513496 43.95852661 C-8.10874126 46.82202703 -8.10760168 49.68551031 -8.10500717 52.54901123 C-8.10433809 53.92698169 -8.10516567 55.30495369 -8.10748672 56.68292236 C-8.11001432 58.60567192 -8.10548164 60.52842689 -8.10058594 62.45117188 C-8.09979034 63.5473584 -8.09899475 64.64354492 -8.09817505 65.77294922 C-8.25023376 68.18446789 -8.25023376 68.18446789 -6.97119141 69.24023438 C-5.32888776 69.36478298 -3.68066864 69.41591962 -2.03369141 69.42773438 C-0.68984375 69.44900391 -0.68984375 69.44900391 0.68115234 69.47070312 C3.21995393 69.47218206 3.21995393 69.47218206 5.02880859 67.24023438 C5.30785488 64.12984494 5.30785488 64.12984494 5.22412109 60.48242188 C5.2212912 59.81937042 5.2184613 59.15631897 5.21554565 58.47317505 C5.20434294 56.35367854 5.1792391 54.23460333 5.15380859 52.11523438 C5.14377887 50.67904256 5.13465301 49.24284412 5.12646484 47.80664062 C5.1044036 44.28436809 5.06987353 40.76234234 5.02880859 37.24023438 C7.99880859 37.57023437 10.96880859 37.90023437 14.02880859 38.24023438 C14.86131972 41.91575416 15.19768769 45.39768409 15.31005859 49.16210938 C15.34744141 50.26941406 15.38482422 51.37671875 15.42333984 52.51757812 C15.49412646 54.84829294 15.56443265 57.17902239 15.63427734 59.50976562 C15.67166016 60.61191406 15.70904297 61.7140625 15.74755859 62.84960938 C15.77785156 63.85991211 15.80814453 64.87021484 15.83935547 65.91113281 C15.77252408 68.1997669 15.77252408 68.1997669 17.02880859 69.24023438 C18.52618984 69.33814007 20.02823752 69.36998302 21.52880859 69.36523438 C22.34349609 69.3678125 23.15818359 69.37039063 23.99755859 69.37304688 C26.02411237 69.46475218 26.02411237 69.46475218 27.02880859 68.24023438 C27.31076828 63.97623492 27.26065795 59.69994124 27.27880859 55.42773438 C27.29943359 54.22568359 27.32005859 53.02363281 27.34130859 51.78515625 C27.34646484 50.62951172 27.35162109 49.47386719 27.35693359 48.28320312 C27.3662793 47.22125732 27.375625 46.15931152 27.38525391 45.06518555 C26.97934136 41.84818964 26.33758384 40.49396029 24.02880859 38.24023438 C20.42415112 37.42708526 20.42415112 37.42708526 17.02880859 37.24023438 C17.02880859 35.59023437 17.02880859 33.94023437 17.02880859 32.24023438 C18.14255859 32.33304688 18.14255859 32.33304688 19.27880859 32.42773438 C22.63080162 32.1991894 23.66383757 31.60029882 26.02880859 29.24023438 C27.59344123 22.58604959 27.77348966 15.55300082 25.02880859 9.24023438 C23.4105994 6.81292058 22.4955068 6.35095026 19.65771484 5.67773438 C14.50557934 5.05659425 9.40065116 5.09599748 4.21630859 5.11523438 C3.15476562 5.11136719 2.09322266 5.1075 0.99951172 5.10351562 C-0.00789063 5.10480469 -1.01529297 5.10609375 -2.05322266 5.10742188 C-2.97337158 5.1085498 -3.89352051 5.10967773 -4.84155273 5.11083984 C-6.95501664 5.00308586 -6.95501664 5.00308586 -7.97119141 6.24023438 Z " fill="#FBFBFB" transform="translate(345.97119140625,213.759765625)"/>
<path d="M0 0 C4.12992083 2.58447477 6.08447662 5.2775585 7.47265625 9.9453125 C9.23085655 18.07698891 6.64847279 26.26899885 2.51953125 33.35546875 C1.53013947 34.8057088 0.52216703 36.2434457 -0.50390625 37.66796875 C-2.90083432 41.14528558 -4.81749597 44.85802919 -6.79296875 48.5859375 C-8.08984375 50.96875 -8.08984375 50.96875 -10.08984375 53.96875 C-4.80984375 54.29875 0.47015625 54.62875 5.91015625 54.96875 C6.99505297 58.22344015 7.04339617 60.67418209 7.03515625 64.09375 C7.03902344 65.70636719 7.03902344 65.70636719 7.04296875 67.3515625 C6.91015625 69.96875 6.91015625 69.96875 5.91015625 70.96875 C4.55920643 71.06143999 3.20348534 71.08622326 1.84936523 71.08227539 C0.98854843 71.08219986 0.12773163 71.08212433 -0.75917053 71.08204651 C-1.69458176 71.07688522 -2.62999298 71.07172394 -3.59375 71.06640625 C-4.54676498 71.0649913 -5.49977997 71.06357635 -6.48167419 71.06211853 C-9.5385954 71.05650152 -12.59544452 71.04394616 -15.65234375 71.03125 C-17.71939999 71.02623719 -19.78645737 71.02167391 -21.85351562 71.01757812 C-26.93231963 71.00652656 -32.01106945 70.98925055 -37.08984375 70.96875 C-37.73506931 56.2117758 -37.73506931 56.2117758 -33.58984375 49.90625 C-33.23325684 49.34244629 -32.87666992 48.77864258 -32.50927734 48.19775391 C-31.76731597 47.02875038 -31.01254485 45.86777757 -30.24511719 44.71533203 C-28.69134781 42.36629016 -27.22897059 39.96566303 -25.76367188 37.56079102 C-24.77187596 35.93711768 -23.76337872 34.32368037 -22.75390625 32.7109375 C-21.41062798 30.49736627 -20.19704736 28.30617985 -19.08984375 25.96875 C-19.61191406 26.13117188 -20.13398437 26.29359375 -20.671875 26.4609375 C-23.74446036 27.10623006 -26.63934995 27.10077798 -29.77734375 27.09375 C-30.93621094 27.09632813 -32.09507813 27.09890625 -33.2890625 27.1015625 C-36.08984375 26.96875 -36.08984375 26.96875 -37.08984375 25.96875 C-37.74804122 17.41218294 -37.89750831 10.33048636 -33.08984375 2.96875 C-32.42984375 2.96875 -31.76984375 2.96875 -31.08984375 2.96875 C-30.75984375 1.97875 -30.42984375 0.98875 -30.08984375 -0.03125 C-19.81909203 -5.34432053 -10.26200009 -5.06386546 0 0 Z M-29.58984375 5.84375 C-32.7979514 10.38856916 -32.26835281 15.61347814 -32.08984375 20.96875 C-31.10716516 22.17436184 -31.10716516 22.17436184 -29.2421875 22.06640625 C-27.19140625 22.03385417 -25.140625 22.00130208 -23.08984375 21.96875 C-21.47246892 17.34767907 -20.23735778 12.7227367 -19.08984375 7.96875 C-15.71484375 8.28125 -15.71484375 8.28125 -12.08984375 8.96875 C-9.61267208 12.68450751 -9.78638633 14.56861738 -10.08984375 18.96875 C-10.70329132 20.65573082 -11.36080289 22.32840807 -12.08984375 23.96875 C-12.08984375 24.95875 -12.08984375 25.94875 -12.08984375 26.96875 C-12.74984375 26.96875 -13.40984375 26.96875 -14.08984375 26.96875 C-16.29123035 30.77302492 -16.29123035 30.77302492 -17.08984375 34.96875 C-17.74984375 34.96875 -18.40984375 34.96875 -19.08984375 34.96875 C-19.33863281 35.66097656 -19.58742188 36.35320312 -19.84375 37.06640625 C-21.28035638 40.41248319 -23.08111608 43.32925318 -25.02734375 46.40625 C-30.96214861 55.47250747 -30.96214861 55.47250747 -32.08984375 65.96875 C-30.41310726 67.64548649 -28.36129299 67.09662817 -26.12329102 67.10769653 C-25.43162842 67.1056723 -24.73996582 67.10364807 -24.02734375 67.1015625 C-23.32085693 67.10251923 -22.61437012 67.10347595 -21.88647461 67.10446167 C-20.39013582 67.10514333 -18.89379408 67.10329005 -17.39746094 67.09912109 C-15.09954218 67.09377257 -12.80181889 67.09906651 -10.50390625 67.10546875 C-9.05338498 67.10480797 -7.60286384 67.1035268 -6.15234375 67.1015625 C-5.11484985 67.10459885 -5.11484985 67.10459885 -4.05639648 67.10769653 C-0.79248737 67.37105733 -0.79248737 67.37105733 1.91015625 65.96875 C2.07682292 62.96875 2.07682292 62.96875 1.91015625 59.96875 C0.91532423 58.75231708 0.91532423 58.75231708 -1.03930664 58.85522461 C-2.28828735 58.86307983 -2.28828735 58.86307983 -3.5625 58.87109375 C-4.91118164 58.87592773 -4.91118164 58.87592773 -6.28710938 58.88085938 C-7.23263672 58.88923828 -8.17816406 58.89761719 -9.15234375 58.90625 C-10.10173828 58.91076172 -11.05113281 58.91527344 -12.02929688 58.91992188 C-14.3828744 58.9317489 -16.73632852 58.94822975 -19.08984375 58.96875 C-18.71214844 58.39511719 -18.33445313 57.82148438 -17.9453125 57.23046875 C-13.83693032 50.88989766 -9.95798836 44.43223258 -6.15234375 37.90625 C-5.65565186 37.0608667 -5.15895996 36.2154834 -4.6472168 35.34448242 C-4.18613525 34.54888916 -3.72505371 33.7532959 -3.25 32.93359375 C-2.83371338 32.2180835 -2.41742676 31.50257324 -1.98852539 30.76538086 C-0.94072394 29.00544161 -0.94072394 29.00544161 -1.08984375 26.96875 C-0.42984375 26.96875 0.23015625 26.96875 0.91015625 26.96875 C3.1120622 16.84533335 3.1120622 16.84533335 0.91015625 6.96875 C-3.38748473 2.1655042 -8.87822306 1.31041178 -15.02734375 0.65625 C-20.38796136 1.2032518 -25.25224869 2.5905537 -29.58984375 5.84375 Z M-16.08984375 12.96875 C-16.08984375 15.93875 -16.08984375 18.90875 -16.08984375 21.96875 C-14.00030343 17.78966936 -13.92431756 17.16464427 -15.08984375 12.96875 C-15.41984375 12.96875 -15.74984375 12.96875 -16.08984375 12.96875 Z " fill="#FCFCFC" transform="translate(147.08984375,101.03125)"/>
<path d="M0 0 C0.71353638 0.00202423 1.42707275 0.00404846 2.16223145 0.00613403 C2.89091431 0.00517731 3.61959717 0.00422058 4.37036133 0.00323486 C5.91377855 0.00255318 7.45719861 0.00440666 9.00061035 0.00857544 C11.37095544 0.01392391 13.74111104 0.00863011 16.1114502 0.00222778 C17.60754437 0.00288857 19.10363842 0.00416973 20.59973145 0.00613403 C21.31326782 0.0041098 22.0268042 0.00208557 22.76196289 0 C27.76602953 0.02399462 27.76602953 0.02399462 28.88098145 1.13894653 C28.95423313 4.0016222 28.9733635 6.83966553 28.94348145 9.70144653 C28.93896973 10.50775513 28.93445801 11.31406372 28.92980957 12.14480591 C28.91798662 14.1428841 28.90005059 16.14092436 28.88098145 18.13894653 C24.92098145 18.46894653 20.96098145 18.79894653 16.88098145 19.13894653 C16.55098145 21.44894653 16.22098145 23.75894653 15.88098145 26.13894653 C19.84098145 26.13894653 23.80098145 26.13894653 27.88098145 26.13894653 C27.88098145 32.07894653 27.88098145 38.01894653 27.88098145 44.13894653 C23.64457132 44.98622856 20.15686143 45.22278732 15.88098145 45.13894653 C15.88098145 48.10894653 15.88098145 51.07894653 15.88098145 54.13894653 C17.27123535 54.12154419 17.27123535 54.12154419 18.6895752 54.10379028 C19.88711426 54.09476685 21.08465332 54.08574341 22.31848145 54.07644653 C23.51344238 54.06484497 24.70840332 54.05324341 25.9395752 54.04129028 C28.88098145 54.13894653 28.88098145 54.13894653 29.88098145 55.13894653 C29.96730019 56.48162066 29.98804618 57.82868975 29.9786377 59.17410278 C29.97541504 59.9829895 29.97219238 60.79187622 29.96887207 61.62527466 C29.95630371 62.90047974 29.95630371 62.90047974 29.94348145 64.20144653 C29.93896973 65.05545044 29.93445801 65.90945435 29.92980957 66.78933716 C29.91798518 68.90590317 29.90004913 71.02243338 29.88098145 73.13894653 C26.8794529 74.63971081 23.79278135 74.28116245 20.5020752 74.27175903 C19.41117332 74.27319412 19.41117332 74.27319412 18.29823303 74.2746582 C16.76079217 74.27533888 15.22334843 74.27349239 13.68591309 74.26931763 C11.32443844 74.26396005 8.96315334 74.2692703 6.60168457 74.27566528 C5.11014769 74.27500463 3.61861093 74.27372374 2.1270752 74.27175903 C1.06147621 74.27479538 1.06147621 74.27479538 -0.02565002 74.27789307 C-5.00406141 74.25390368 -5.00406141 74.25390368 -6.11901855 73.13894653 C-6.21865775 70.90507447 -6.2470165 68.66800795 -6.24841309 66.43191528 C-6.25016541 65.73111847 -6.25191772 65.03032166 -6.25372314 64.30828857 C-6.25814121 61.98098305 -6.25520384 59.6537529 -6.25183105 57.32644653 C-6.25250411 55.71601344 -6.25347414 54.10558045 -6.25473022 52.49514771 C-6.25620714 49.11566198 -6.25405286 45.73620264 -6.24938965 42.35671997 C-6.24369236 38.01518148 -6.2469714 33.6737048 -6.25296211 29.33216858 C-6.25656791 26.00543753 -6.25542905 22.67872123 -6.25283432 19.35198975 C-6.2521651 17.75073235 -6.25299329 16.14947363 -6.25531387 14.54821777 C-6.25784071 12.31410143 -6.2539994 10.08008653 -6.24841309 7.84597778 C-6.24761749 6.57214233 -6.2468219 5.29830688 -6.2460022 3.98587036 C-6.03279181 -0.79422356 -4.32061151 0.02071744 0 0 Z M-1.11901855 6.13894653 C-1.21297913 8.07201152 -1.23645373 10.00853491 -1.23254395 11.94387817 C-1.23246841 13.18508926 -1.23239288 14.42630035 -1.23231506 15.7051239 C-1.22720766 17.06978393 -1.22199165 18.43444355 -1.2166748 19.79910278 C-1.21481056 21.18772837 -1.21338669 22.5763546 -1.21238708 23.96498108 C-1.20856242 27.62615768 -1.19873259 31.28729483 -1.18768311 34.94845581 C-1.17746788 38.68186916 -1.17288923 42.41528887 -1.16784668 46.14871216 C-1.15711026 53.4788083 -1.14003447 60.8088719 -1.11901855 68.13894653 C1.42373693 69.41032428 3.22906345 69.26837153 6.0723877 69.27175903 C7.09912598 69.2730481 8.12586426 69.27433716 9.18371582 69.27566528 C10.25943848 69.2717981 11.33516113 69.26793091 12.44348145 69.26394653 C14.06286621 69.26974731 14.06286621 69.26974731 15.71496582 69.27566528 C16.74041504 69.27437622 17.76586426 69.27308716 18.8223877 69.27175903 C19.76799561 69.2706311 20.71360352 69.26950317 21.68786621 69.26834106 C23.85736395 69.38397474 23.85736395 69.38397474 24.88098145 68.13894653 C25.04151959 66.26572706 25.04151959 66.26572706 25.00598145 64.13894653 C25.00855957 63.41707153 25.0111377 62.69519653 25.01379395 61.95144653 C25.07793421 60.11805239 25.07793421 60.11805239 23.88098145 59.13894653 C21.86133946 59.066506 19.83931021 59.05517465 17.81848145 59.07644653 C14.87941895 59.10738403 14.87941895 59.10738403 11.88098145 59.13894653 C11.88098145 52.53894653 11.88098145 45.93894653 11.88098145 39.13894653 C15.84098145 39.13894653 19.80098145 39.13894653 23.88098145 39.13894653 C23.88098145 36.49894653 23.88098145 33.85894653 23.88098145 31.13894653 C19.92098145 31.13894653 15.96098145 31.13894653 11.88098145 31.13894653 C11.88098145 25.52894653 11.88098145 19.91894653 11.88098145 14.13894653 C15.84098145 14.13894653 19.80098145 14.13894653 23.88098145 14.13894653 C23.88098145 11.16894653 23.88098145 8.19894653 23.88098145 5.13894653 C19.90182986 5.1100767 15.92270491 5.09219247 11.94348145 5.07644653 C10.80717285 5.06806763 9.67086426 5.05968872 8.50012207 5.05105591 C7.42053223 5.04783325 6.34094238 5.0446106 5.2286377 5.04129028 C4.22840576 5.03605347 3.22817383 5.03081665 2.19763184 5.02542114 C-0.08109083 4.87713558 -0.08109083 4.87713558 -1.11901855 6.13894653 Z " fill="#FBFBFB" transform="translate(288.1190185546875,213.86105346679688)"/>
<path d="M0 0 C9.9 0 19.8 0 30 0 C31.05206093 3.15618278 31.42281865 5.94317133 31.8125 9.25 C31.98500672 10.6745605 32.15825553 12.09903124 32.33203125 13.5234375 C32.43338379 14.35842773 32.53473633 15.19341797 32.63916016 16.05371094 C33.32311966 21.63830044 34.02589444 27.22043708 34.73690796 32.80163574 C34.9105451 34.17002774 35.08279512 35.53859655 35.25357056 36.90734863 C36.41494855 46.2322424 36.41494855 46.2322424 38.1171875 55.46875 C39.43984679 61.71061472 39.12527203 67.61112625 39 74 C32.07 74 25.14 74 18 74 C15.75 67.25 15.75 67.25 15 64 C14.93941406 64.63808594 14.87882812 65.27617187 14.81640625 65.93359375 C14.69072266 67.17302734 14.69072266 67.17302734 14.5625 68.4375 C14.48128906 69.26121094 14.40007812 70.08492188 14.31640625 70.93359375 C14 73 14 73 13 74 C11.36527118 74.08700342 9.72685945 74.10701063 8.08984375 74.09765625 C7.10048828 74.09443359 6.11113281 74.09121094 5.09179688 74.08789062 C4.05087891 74.07951172 3.00996094 74.07113281 1.9375 74.0625 C0.89271484 74.05798828 -0.15207031 74.05347656 -1.22851562 74.04882812 C-3.8190666 74.03699913 -6.40950559 74.02051689 -9 74 C-8.61551042 65.935837 -8.15357611 58.09223191 -6.53515625 50.16796875 C-5.80040811 45.81847426 -5.40959985 41.45297416 -5 37.0625 C-4.39524479 30.5849395 -3.60680343 24.22798206 -2.4375 17.82421875 C-1.7586932 13.44227843 -1.50601209 9.04110376 -1.24609375 4.6171875 C-1 2 -1 2 0 0 Z M5 5 C3.51503295 8.39448139 2.67342555 11.37034974 2.2890625 15.05078125 C2.18053955 16.04480957 2.0720166 17.03883789 1.96020508 18.06298828 C1.8495874 19.13532715 1.73896973 20.20766602 1.625 21.3125 C1.37267449 23.62907897 1.11868611 25.94547726 0.86328125 28.26171875 C0.65952881 30.11869385 0.65952881 30.11869385 0.45166016 32.01318359 C-0.35474816 39.22584539 -1.2788282 46.42466036 -2.1875 53.625 C-2.36837188 55.06290123 -2.54919972 56.50080801 -2.72998047 57.9387207 C-3.15179813 61.29267558 -3.57594729 64.64632422 -4 68 C0.29 68 4.58 68 9 68 C9.66 64.37 10.32 60.74 11 57 C13.97 57 16.94 57 20 57 C20.99 62.445 20.99 62.445 22 68 C26.29 68 30.58 68 35 68 C34.79503906 66.92363281 34.59007812 65.84726562 34.37890625 64.73828125 C33.12175679 57.97876909 31.90693414 51.31208944 31.5 44.4375 C31.16336946 38.91401109 30.24703851 33.59854791 29.16064453 28.18505859 C28.03309584 22.47278929 27.27612131 16.75067101 26.64672852 10.96362305 C26.52319091 7.69669508 26.52319091 7.69669508 25 5 C23.5112814 4.91330568 22.018555 4.89296506 20.52734375 4.90234375 C19.17866211 4.90717773 19.17866211 4.90717773 17.80273438 4.91210938 C16.85720703 4.92048828 15.91167969 4.92886719 14.9375 4.9375 C13.98810547 4.94201172 13.03871094 4.94652344 12.06054688 4.95117188 C9.70696935 4.9629989 7.35351523 4.97947975 5 5 Z " fill="#FBFAFA" transform="translate(117,214)"/>
<path d="M0 0 C6.93 0 13.86 0 21 0 C22.66623578 1.66623578 22.16740691 3.68758912 22.20532227 5.97875977 C22.22526749 7.03978409 22.24521271 8.10080841 22.26576233 9.19398499 C22.28247482 10.348134 22.29918732 11.50228302 22.31640625 12.69140625 C22.33718735 13.86638168 22.35796844 15.04135712 22.37937927 16.25193787 C22.44500124 20.02206324 22.5038183 23.79226082 22.5625 27.5625 C22.6056732 30.11133573 22.64928708 32.66016403 22.69335938 35.20898438 C22.80069545 41.47257892 22.9024379 47.73624601 23 54 C24.06541016 54.09087891 24.06541016 54.09087891 25.15234375 54.18359375 C26.07144531 54.26738281 26.99054688 54.35117187 27.9375 54.4375 C28.85402344 54.51871094 29.77054688 54.59992188 30.71484375 54.68359375 C33 55 33 55 34 56 C34.09986975 58.84335048 34.13877881 61.65697163 34.125 64.5 C34.13080078 65.69689453 34.13080078 65.69689453 34.13671875 66.91796875 C34.12660767 72.87339233 34.12660767 72.87339233 33 74 C22.11 74 11.22 74 0 74 C0 49.58 0 25.16 0 0 Z M4 5 C4 25.79 4 46.58 4 68 C11.92 68 19.84 68 28 68 C29.34404775 66.88163776 29.34404775 66.88163776 29.125 64 C29.34404775 61.11836224 29.34404775 61.11836224 28 60 C24.37 59.67 20.74 59.34 17 59 C17 41.18 17 23.36 17 5 C12.71 5 8.42 5 4 5 Z " fill="#FAF9F9" transform="translate(172,214)"/>
<path d="M0 0 C0 24.09 0 48.18 0 73 C-6.93 73 -13.86 73 -21 73 C-21.33 57.49 -21.66 41.98 -22 26 C-26.68131128 24.89377043 -26.68131128 24.89377043 -30.25 25 C-31.1575 25 -32.065 25 -33 25 C-34.73749107 23.26250893 -34.294321 20.98951518 -34.375 18.625 C-34.29263006 13.31213873 -34.29263006 13.31213873 -32.125 11 C-31.09375 10.67 -30.0625 10.34 -29 10 C-28.15566406 9.72800781 -27.31132813 9.45601562 -26.44140625 9.17578125 C-23.97192314 8.4016596 -21.49588216 7.68333861 -19 7 C-19 6.34 -19 5.68 -19 5 C-13.15568891 -2.01317331 -10.42406606 0 0 0 Z M-14.75 8.25 C-19.01027379 12.32037787 -23.45860015 14.17179226 -29 16 C-28.67 17.32 -28.34 18.64 -28 20 C-24.7 20.33 -21.4 20.66 -18 21 C-17.22274431 24.10902276 -16.86239856 26.27312584 -16.81054688 29.38549805 C-16.78547058 30.67154182 -16.78547058 30.67154182 -16.7598877 31.98356628 C-16.74631226 32.9003566 -16.73273682 33.81714691 -16.71875 34.76171875 C-16.70034058 35.70811722 -16.68193115 36.65451569 -16.66296387 37.6295929 C-16.58429814 41.67718248 -16.51630049 45.72493336 -16.44775391 49.77270508 C-16.39618578 52.72746411 -16.33889885 55.68207314 -16.28125 58.63671875 C-16.26767456 59.55958176 -16.25409912 60.48244476 -16.2401123 61.43327332 C-16.21503601 62.70513237 -16.21503601 62.70513237 -16.18945312 64.00268555 C-16.17692505 64.7522905 -16.16439697 65.50189545 -16.15148926 66.2742157 C-16.18355702 68.03063169 -16.18355702 68.03063169 -15 69 C-13.50261876 69.0979057 -12.00057108 69.12974864 -10.5 69.125 C-9.6853125 69.12757813 -8.870625 69.13015625 -8.03125 69.1328125 C-6.00469623 69.2245178 -6.00469623 69.2245178 -5 68 C-4.9059933 66.03630847 -4.88256619 64.06920801 -4.88647461 62.10327148 C-4.88658791 60.21142372 -4.88658791 60.21142372 -4.88670349 58.28135681 C-4.8918109 56.89460206 -4.89702691 55.50784771 -4.90234375 54.12109375 C-4.90420799 52.71004791 -4.90563186 51.29900143 -4.90663147 49.88795471 C-4.91045621 46.16759465 -4.9202861 42.4472734 -4.93133545 38.72692871 C-4.94155052 34.93319219 -4.94612929 31.13944942 -4.95117188 27.34570312 C-4.96190842 19.89711769 -4.9789843 12.44856428 -5 5 C-9.63889866 4.85980917 -11.50135475 4.82886031 -14.75 8.25 Z " fill="#FBFBFB" transform="translate(91,99)"/>
<path d="M0 0 C1.65 0.33 3.3 0.66 5 1 C5.79367003 6.05964641 6.2431071 11.07129357 6.5 16.1875 C6.87665475 23.13849229 7.38552063 30.06516138 8 37 C4.37 37 0.74 37 -3 37 C-4.44176388 34.11647224 -3.54280688 32.17775686 -3 29 C-2.78375091 25.9196995 -2.6816499 22.83540348 -2.5625 19.75 C-2.26154313 12.97619545 -1.62462313 6.60680074 0 0 Z " fill="#FCFCFC" transform="translate(130,226)"/>
<path d="M0 0 C3.625 0.25 3.625 0.25 5.5 1.5625 C7.48465646 4.53948469 7.78316501 7.2083706 7.8125 10.6875 C7.82667969 11.44933594 7.84085937 12.21117187 7.85546875 12.99609375 C7.58952968 15.59688771 7.15868517 17.1235408 5.625 19.25 C3.49609375 19.89453125 3.49609375 19.89453125 1.0625 20.0625 C-0.14599609 20.16498047 -0.14599609 20.16498047 -1.37890625 20.26953125 C-3.375 20.25 -3.375 20.25 -4.375 19.25 C-4.4733721 17.91956375 -4.50578592 16.58406656 -4.5078125 15.25 C-4.50910156 14.445625 -4.51039063 13.64125 -4.51171875 12.8125 C-4.50785156 11.966875 -4.50398438 11.12125 -4.5 10.25 C-4.50386719 9.404375 -4.50773437 8.55875 -4.51171875 7.6875 C-4.51042969 6.883125 -4.50914062 6.07875 -4.5078125 5.25 C-4.50668457 4.5075 -4.50555664 3.765 -4.50439453 3 C-4.26532152 -0.23334972 -3.32253046 0.24611337 0 0 Z M1.625 7.25 C1.625 9.23 1.625 11.21 1.625 13.25 C1.955 13.25 2.285 13.25 2.625 13.25 C2.625 11.27 2.625 9.29 2.625 7.25 C2.295 7.25 1.965 7.25 1.625 7.25 Z " fill="#FAFAFA" transform="translate(354.375,224.75)"/>
<path d="M0 0 C6.93 0 13.86 0 21 0 C21 0.33 21 0.66 21 1 C20.16021606 1.029729 20.16021606 1.029729 19.3034668 1.06005859 C16.76434146 1.15537783 14.22603112 1.26502753 11.6875 1.375 C10.36588867 1.42140625 10.36588867 1.42140625 9.01757812 1.46875 C8.17001953 1.50742188 7.32246094 1.54609375 6.44921875 1.5859375 C5.66893311 1.6173584 4.88864746 1.6487793 4.0847168 1.68115234 C1.69844232 1.89587889 1.69844232 1.89587889 -1 4 C-0.67 2.68 -0.34 1.36 0 0 Z " fill="#F4F4F4" transform="translate(221,214)"/>
<path d="M0 0 C0.33 0 0.66 0 1 0 C1.33 3.63 1.66 7.26 2 11 C1.01 11 0.02 11 -1 11 C-1.125 3.375 -1.125 3.375 0 0 Z " fill="#E7E5E5" transform="translate(132,248)"/>
<path d="M0 0 C0.99 0.33 1.98 0.66 3 1 C3 3.64 3 6.28 3 9 C0.90250005 6.64031256 0.03094296 5.45383006 -0.1875 2.25 C-0.125625 1.5075 -0.06375 0.765 0 0 Z " fill="#E6E6E6" transform="translate(352,232)"/>
<path d="M0 0 C0.33 0.66 0.66 1.32 1 2 C1.66 2 2.32 2 3 2 C3 3.32 3 4.64 3 6 C2.34 6 1.68 6 1 6 C0.67 6.99 0.34 7.98 0 9 C0 6.03 0 3.06 0 0 Z " fill="#F1F1F1" transform="translate(316,157)"/>
<path d="M0 0 C0.99 0.495 0.99 0.495 2 1 C2 3.64 2 6.28 2 9 C1.34 8.67 0.68 8.34 0 8 C0 5.36 0 2.72 0 0 Z " fill="#010101" transform="translate(180,236)"/>
</svg>
